<svg width="81" height="18" viewBox="0 0 81 18" fill="none" xmlns="http://www.w3.org/2000/svg">
<path d="M11.9495 3.70795C12.075 3.70795 12.1834 3.7536 12.2747 3.84491C12.366 3.93621 12.4117 4.04463 12.4117 4.17017V15.229C12.4117 15.3545 12.366 15.463 12.2747 15.5543C12.1834 15.6456 12.075 15.6912 11.9495 15.6912H8.42298C8.29744 15.6912 8.18902 15.6456 8.09772 15.5543C8.00642 15.463 7.96077 15.3545 7.96077 15.229V11.5827H4.53698V15.229C4.53698 15.3545 4.49133 15.463 4.40003 15.5543C4.30873 15.6456 4.20031 15.6912 4.07477 15.6912H0.548271C0.422732 15.6912 0.314312 15.6513 0.223011 15.5714C0.13171 15.4801 0.0860596 15.366 0.0860596 15.229V4.17017C0.0860596 4.04463 0.13171 3.93621 0.223011 3.84491C0.314312 3.7536 0.422732 3.70795 0.548271 3.70795H4.07477C4.20031 3.70795 4.30873 3.7536 4.40003 3.84491C4.49133 3.93621 4.53698 4.04463 4.53698 4.17017V7.67955H7.96077V4.17017C7.96077 4.04463 8.00642 3.93621 8.09772 3.84491C8.18902 3.7536 8.29744 3.70795 8.42298 3.70795H11.9495Z" fill="#483969"/>
<path d="M27.1615 10.7438C27.1615 12.49 26.5795 13.7796 25.4154 14.6127C24.2627 15.4458 22.722 15.8624 20.7933 15.8624C18.8646 15.8624 17.3181 15.4458 16.1541 14.6127C15.0014 13.7796 14.425 12.4786 14.425 10.7096V8.68957C14.425 7.52548 14.6989 6.56111 15.2468 5.79646C15.806 5.02041 16.5649 4.44977 17.5236 4.08457C18.4822 3.71937 19.5721 3.53676 20.7933 3.53676C22.0144 3.53676 23.0986 3.71937 24.0459 4.08457C25.0045 4.44977 25.7635 5.0147 26.3227 5.77935C26.8819 6.54399 27.1615 7.50265 27.1615 8.65533V10.7438ZM19.0472 11.0691C19.0472 11.537 19.2012 11.8965 19.5094 12.1476C19.8289 12.3987 20.2569 12.5242 20.7933 12.5242C21.3297 12.5242 21.7519 12.3987 22.0601 12.1476C22.3796 11.8851 22.5394 11.5199 22.5394 11.052V8.34719C22.5394 7.87927 22.3796 7.51977 22.0601 7.26869C21.7519 7.0062 21.3297 6.87496 20.7933 6.87496C20.2569 6.87496 19.8289 7.0005 19.5094 7.25157C19.2012 7.50265 19.0472 7.86215 19.0472 8.33007V11.0691Z" fill="#483969"/>
<path d="M37.5803 4.17017C37.7515 3.86202 37.9968 3.70795 38.3164 3.70795H41.4492C41.5747 3.70795 41.6831 3.7536 41.7744 3.84491C41.8657 3.93621 41.9114 4.04463 41.9114 4.17017V15.229C41.9114 15.3545 41.8657 15.463 41.7744 15.5543C41.6831 15.6456 41.5747 15.6912 41.4492 15.6912H38.3506C38.2251 15.6912 38.1167 15.6456 38.0254 15.5543C37.9341 15.463 37.8884 15.3545 37.8884 15.229V9.92213L36.6387 12.3873C36.6045 12.4671 36.5246 12.5584 36.3991 12.6612C36.2735 12.7639 36.1138 12.8152 35.9197 12.8152H34.7557C34.5616 12.8152 34.4019 12.7639 34.2763 12.6612C34.1508 12.5584 34.0709 12.4671 34.0367 12.3873L32.787 9.92213V15.229C32.787 15.3545 32.7413 15.463 32.65 15.5543C32.5587 15.6456 32.4503 15.6912 32.3248 15.6912H29.2262C29.1007 15.6912 28.9923 15.6456 28.901 15.5543C28.8097 15.463 28.764 15.3545 28.764 15.229V4.17017C28.764 4.04463 28.8097 3.93621 28.901 3.84491C28.9923 3.7536 29.1007 3.70795 29.2262 3.70795H32.359C32.6786 3.70795 32.9239 3.86202 33.0951 4.17017L35.3377 8.27871L37.5803 4.17017Z" fill="#483969"/>
<path d="M55.4286 12.353C55.5542 12.353 55.6626 12.3987 55.7539 12.49C55.8452 12.5813 55.8909 12.6897 55.8909 12.8152V15.229C55.8909 15.3545 55.8452 15.463 55.7539 15.5543C55.6626 15.6456 55.5542 15.6912 55.4286 15.6912H44.6095C44.4839 15.6912 44.3755 15.6456 44.2842 15.5543C44.1929 15.463 44.1473 15.3545 44.1473 15.229V4.17017C44.1473 4.04463 44.1929 3.93621 44.2842 3.84491C44.3755 3.7536 44.4839 3.70795 44.6095 3.70795H55.2575C55.383 3.70795 55.4914 3.7536 55.5827 3.84491C55.674 3.93621 55.7197 4.04463 55.7197 4.17017V6.58394C55.7197 6.70947 55.674 6.81789 55.5827 6.9092C55.4914 7.0005 55.383 7.04615 55.2575 7.04615H48.5982V8.12464H54.3159C54.4415 8.12464 54.5499 8.17029 54.6412 8.26159C54.7325 8.35289 54.7781 8.46131 54.7781 8.58685V10.8123C54.7781 10.9379 54.7325 11.0463 54.6412 11.1376C54.5499 11.2289 54.4415 11.2745 54.3159 11.2745H48.5982V12.353H55.4286Z" fill="#483969"/>
<path fill-rule="evenodd" clip-rule="evenodd" d="M72.1179 2.7173L78.9655 10.1641V15.3858C78.9655 16.414 78.199 17.2475 77.2536 17.2475H66.9822C66.0368 17.2475 65.2703 16.414 65.2703 15.3858V10.1641L72.1179 2.7173Z" fill="#483969"/>
<path fill-rule="evenodd" clip-rule="evenodd" d="M77.8242 1.7332V6.0772L75.5417 3.59492V1.7332C75.5417 1.39047 75.7971 1.11263 76.1123 1.11263H77.2536C77.5687 1.11263 77.8242 1.39047 77.8242 1.7332Z" fill="#483969"/>
<path fill-rule="evenodd" clip-rule="evenodd" d="M71.3109 0.492062C71.7566 0.00736463 72.4792 0.00736723 72.9249 0.492062L80.5102 8.74125C80.7331 8.98359 80.7331 9.37652 80.5102 9.61887C80.2874 9.86121 79.9261 9.86121 79.7032 9.61887L72.1179 1.36968L64.5325 9.61887C64.3097 9.86121 63.9484 9.86121 63.7256 9.61887C63.5027 9.37652 63.5027 8.98359 63.7256 8.74125L71.3109 0.492062Z" fill="#483969"/>
</svg>
